<svg xmlns="http://www.w3.org/2000/svg" version="1.1" xmlns:xlink="http://www.w3.org/1999/xlink" xmlns:svgjs="http://svgjs.dev/svgjs" width="1000" height="348" viewBox="0 0 1000 348"><g transform="matrix(1,0,0,1,1.128963575855721,0.18371561520339696)"><svg viewBox="0 0 396 138" data-background-color="#444444" preserveAspectRatio="xMidYMid meet" height="348" width="1000" xmlns="http://www.w3.org/2000/svg" xmlns:xlink="http://www.w3.org/1999/xlink"><g id="tight-bounds" transform="matrix(1,0,0,1,0.23999756306005793,-0.07285274395997021)"><svg viewBox="0 0 395.52 138.14570548791997" height="138.14570548791997" width="395.52"><g><svg viewBox="0 0 575.4758696205129 201" height="138.14570548791997" width="395.52"><g><rect width="8.324402953846157" height="201" x="221.77009230769235" y="0" fill="#ffffff" opacity="1" stroke-width="0" stroke="transparent" fill-opacity="1" class="rect-o-0" data-fill-palette-color="primary" rx="1%" id="o-0" data-palette-color="#ffffff"></rect></g><g transform="matrix(1,0,0,1,251.88612603076928,0.4999999999999858)"><svg viewBox="0 0 323.58974358974365 200.00000000000003" height="200.00000000000003" width="323.58974358974365"><g id="textblocktransform"><svg viewBox="0 0 323.58974358974365 200.00000000000003" height="200.00000000000003" width="323.58974358974365" id="textblock"><g><svg viewBox="0 0 323.58974358974365 200.00000000000003" height="200.00000000000003" width="323.58974358974365"><g transform="matrix(1,0,0,1,0,0)"><svg width="323.58974358974365" viewBox="1.700000286102295 -35.5 126.19999694824219 75" height="200.00000000000003" data-palette-color="#ffffff"><svg></svg><svg></svg><g class="wordmark-text-0" data-fill-palette-color="primary" id="text-0"><path xmlns="http://www.w3.org/2000/svg" d="M2.05 0v-35h8.3c2.833 0 4.9 0.66 6.2 1.98 1.3 1.313 1.95 3.337 1.95 6.07v0 1.4c0 1.8-0.29 3.267-0.87 4.4-0.587 1.133-1.48 1.95-2.68 2.45v0 0.1c2.733 0.933 4.1 3.367 4.1 7.3v0 3c0 2.7-0.707 4.757-2.12 6.17-1.42 1.42-3.497 2.13-6.23 2.13v0zM7.55-20.75h2.15c1.1 0 1.927-0.283 2.48-0.85 0.547-0.567 0.82-1.517 0.82-2.85v0-1.95c0-1.267-0.223-2.183-0.67-2.75-0.453-0.567-1.163-0.85-2.13-0.85v0h-2.65zM7.55-5h3.15c0.967 0 1.683-0.26 2.15-0.78 0.467-0.513 0.7-1.403 0.7-2.67v0-3.05c0-1.6-0.273-2.71-0.82-3.33-0.553-0.613-1.463-0.92-2.73-0.92v0h-2.45zM30.2 0.5c-2.7 0-4.767-0.767-6.2-2.3-1.433-1.533-2.15-3.7-2.15-6.5v0-18.4c0-2.8 0.717-4.967 2.15-6.5 1.433-1.533 3.5-2.3 6.2-2.3v0c2.7 0 4.767 0.767 6.2 2.3 1.433 1.533 2.15 3.7 2.15 6.5v0 18.4c0 2.8-0.717 4.967-2.15 6.5-1.433 1.533-3.5 2.3-6.2 2.3zM30.2-4.5c1.9 0 2.85-1.15 2.85-3.45v0-19.1c0-2.3-0.95-3.45-2.85-3.45v0c-1.9 0-2.85 1.15-2.85 3.45v0 19.1c0 2.3 0.95 3.45 2.85 3.45zM50.2 0.5c-2.7 0-4.767-0.767-6.2-2.3-1.433-1.533-2.15-3.7-2.15-6.5v0-18.4c0-2.8 0.717-4.967 2.15-6.5 1.433-1.533 3.5-2.3 6.2-2.3v0c2.7 0 4.767 0.767 6.2 2.3 1.433 1.533 2.15 3.7 2.15 6.5v0 18.4c0 2.8-0.717 4.967-2.15 6.5-1.433 1.533-3.5 2.3-6.2 2.3zM50.2-4.5c1.9 0 2.85-1.15 2.85-3.45v0-19.1c0-2.3-0.95-3.45-2.85-3.45v0c-1.9 0-2.85 1.15-2.85 3.45v0 19.1c0 2.3 0.95 3.45 2.85 3.45zM62.25 0v-35h5.5v14.75l7-14.75h5.5l-6.55 12.85 6.65 22.15h-5.75l-4.65-15.6-2.2 4.45v11.15z" fill="#ffffff" fill-rule="nonzero" stroke="none" stroke-width="1" strokeLinecap="butt" stroke-linejoin="miter" stroke-miterlimit="10" stroke-dasharray="" stroke-dashoffset="0" font-family="none" font-weight="none" font-size="none" text-anchor="none" style="mix-blend-mode: normal" data-fill-palette-color="primary" opacity="1"></path><path xmlns="http://www.w3.org/2000/svg" d="M9.8 39.5c-2.633 0-4.64-0.75-6.02-2.25-1.387-1.5-2.08-3.617-2.08-6.35v0-18.8c0-2.733 0.693-4.85 2.08-6.35 1.38-1.5 3.387-2.25 6.02-2.25v0c2.633 0 4.643 0.75 6.03 2.25 1.38 1.5 2.07 3.617 2.07 6.35v0 3.7h-5.2v-4.05c0-2.167-0.917-3.25-2.75-3.25v0c-1.833 0-2.75 1.083-2.75 3.25v0 19.55c0 2.133 0.917 3.2 2.75 3.2v0c1.833 0 2.75-1.067 2.75-3.2v0-5.35h5.2v4.95c0 2.733-0.69 4.85-2.07 6.35-1.387 1.5-3.397 2.25-6.03 2.25zM19.75 39l5.7-35h7.45l5.7 35h-5.5l-1-6.95v0.1h-6.25l-1 6.85zM26.5 27.4h4.95l-2.45-17.3h-0.1zM43.25 39v-30h-5.75v-5h17v5h-5.75v30zM53.4 39l5.7-35h7.45l5.7 35h-5.5l-1-6.95v0.1h-6.25l-1 6.85zM60.15 27.4h4.95l-2.45-17.3h-0.1zM74.9 39v-35h5.5v30h9.05v5zM99.85 39.5c-2.7 0-4.767-0.767-6.2-2.3-1.433-1.533-2.15-3.7-2.15-6.5v0-18.4c0-2.8 0.717-4.967 2.15-6.5 1.433-1.533 3.5-2.3 6.2-2.3v0c2.7 0 4.767 0.767 6.2 2.3 1.433 1.533 2.15 3.7 2.15 6.5v0 18.4c0 2.8-0.717 4.967-2.15 6.5-1.433 1.533-3.5 2.3-6.2 2.3zM99.85 34.5c1.9 0 2.85-1.15 2.85-3.45v0-19.1c0-2.3-0.95-3.45-2.85-3.45v0c-1.9 0-2.85 1.15-2.85 3.45v0 19.1c0 2.3 0.95 3.45 2.85 3.45zM119.7 39.5c-2.667 0-4.7-0.76-6.1-2.28-1.4-1.513-2.1-3.687-2.1-6.52v0-18.4c0-2.833 0.7-5.01 2.1-6.53 1.4-1.513 3.433-2.27 6.1-2.27v0c2.667 0 4.7 0.757 6.1 2.27 1.4 1.52 2.1 3.697 2.1 6.53v0 3h-5.2v-3.35c0-2.3-0.95-3.45-2.85-3.45v0c-1.9 0-2.85 1.15-2.85 3.45v0 19.15c0 2.267 0.95 3.4 2.85 3.4v0c1.9 0 2.85-1.133 2.85-3.4v0-6.85h-2.75v-5h7.95v11.45c0 2.833-0.7 5.007-2.1 6.52-1.4 1.52-3.433 2.28-6.1 2.28z" fill="#ffffff" fill-rule="nonzero" stroke="none" stroke-width="1" strokeLinecap="butt" stroke-linejoin="miter" stroke-miterlimit="10" stroke-dasharray="" stroke-dashoffset="0" font-family="none" font-weight="none" font-size="none" text-anchor="none" style="mix-blend-mode: normal" data-fill-palette-color="primary" opacity="1"></path></g></svg></g></svg></g></svg></g></svg></g><g transform="matrix(1,0,0,1,0,9.084480858104271)"><svg viewBox="0 0 199.97846153846157 182.83103828379146" height="182.83103828379146" width="199.97846153846157"><g><svg xmlns="http://www.w3.org/2000/svg" data-name="Layer 1" viewBox="4 7.9317240715026855 92 84.11133575439453" x="0" y="0" height="182.83103828379146" width="199.97846153846157" class="icon-icon-0" data-fill-palette-color="accent" id="icon-0"><path d="M7.59 25.95a93.35 93.35 0 0 1 38.43 9 2.39 2.39 0 0 1 1.37 2.17V90.28a1.77 1.77 0 0 1-2.49 1.61A93 93 0 0 0 7.59 83.41l-1.34 0A2.23 2.23 0 0 1 4 81.19v-53A2.24 2.24 0 0 1 6.14 26Zm2.24-9l-0.61 3.34a1 1 0 0 0 1 1.24 97.86 97.86 0 0 1 34 7.71 0.28 0.28 0 0 0 0.26-0.49C28.52 18.91 14.72 16.54 11 16.06A1 1 0 0 0 9.83 16.91Zm36.9 7.93a0.41 0.41 0 0 0 0.49-0.66C34.76 13.51 23.4 9.13 20.13 8a1 1 0 0 0-1.31 0.61l-1.14 2.85a1 1 0 0 0 0.73 1.41A98.32 98.32 0 0 1 46.73 24.84ZM96 81.19v-53A2.24 2.24 0 0 0 93.86 26l-1.44 0a93.35 93.35 0 0 0-38.43 9 2.39 2.39 0 0 0-1.37 2.17V90.28a1.77 1.77 0 0 0 2.49 1.61 93 93 0 0 1 37.31-8.48l1.34 0A2.23 2.23 0 0 0 96 81.19Zm-40.21-52a97.86 97.86 0 0 1 34-7.71 1 1 0 0 0 1-1.24l-0.61-3.34A1 1 0 0 0 89 16.06c-3.72 0.49-17.53 2.86-33.43 12.66A0.28 0.28 0 0 0 55.83 29.2ZM81.18 8.62A1 1 0 0 0 79.87 8c-3.28 1.12-14.64 5.5-27.09 16.17a0.41 0.41 0 0 0 0.49 0.66 98.32 98.32 0 0 1 28.33-12 1 1 0 0 0 0.73-1.41Z" fill="#ffffff" data-fill-palette-color="accent"></path></svg></g></svg></g></svg></g><defs></defs></svg><rect width="395.52" height="138.14570548791997" fill="none" stroke="none" visibility="hidden"></rect></g></svg></g></svg>